<?xml version="1.0" standalone="no"?>
<!DOCTYPE svg PUBLIC "-//W3C//DTD SVG 20010904//EN"
 "http://www.w3.org/TR/2001/REC-SVG-20010904/DTD/svg10.dtd">
<svg version="1.0" xmlns="http://www.w3.org/2000/svg"
 width="1112.000000pt" height="1280.000000pt" viewBox="0 0 1112.000000 1280.000000"
 preserveAspectRatio="xMidYMid meet">
<metadata>
Created by potrace 1.15, written by Peter Selinger 2001-2017
</metadata>
<g transform="translate(0.000000,1280.000000) scale(0.100000,-0.100000)"
fill="#000000" stroke="none">
<path d="M5403 12794 c-15 -7 -3334 -3978 -3351 -4011 -8 -14 -11 -28 -7 -31
14 -14 6707 6 6721 20 4 4 -5 23 -20 42 -64 85 -3250 3962 -3264 3974 -16 12
-56 15 -79 6z m830 -1941 c310 -91 486 -428 464 -888 -7 -140 -40 -269 -90
-354 -99 -168 -283 -254 -507 -238 -157 12 -274 62 -374 162 -150 150 -220
362 -221 675 0 191 16 279 71 389 77 155 199 244 374 271 71 11 218 3 283 -17z
m-1260 -8 c98 -20 169 -56 225 -112 105 -105 118 -278 35 -446 -51 -102 -187
-233 -467 -450 l-228 -177 316 0 c174 0 316 -3 316 -7 0 -5 -7 -65 -17 -135
l-17 -128 -528 0 c-290 0 -528 3 -528 8 0 4 9 61 20 127 11 66 20 123 20 127
0 4 140 116 311 250 346 270 405 322 438 394 90 191 -33 343 -247 306 -96 -16
-184 -47 -284 -97 -65 -33 -88 -40 -88 -29 0 15 41 298 44 301 6 7 216 56 291
67 120 19 303 19 388 1z"/>
<path d="M5995 10606 c-44 -19 -82 -69 -100 -129 -33 -112 -28 -392 11 -587
28 -140 87 -232 162 -255 40 -12 119 -7 151 9 66 35 98 118 108 286 6 112 -9
307 -33 430 -21 106 -66 194 -116 227 -48 32 -136 41 -183 19z"/>
<path d="M6242 12242 c90 -108 763 -928 1497 -1821 l1335 -1623 35 5 c30 4
518 225 1550 700 73 33 136 67 138 75 3 7 -3 22 -13 32 -17 16 -4690 2830
-4700 2830 -2 0 69 -89 158 -198z m2510 -2043 c156 -89 315 -177 353 -196 105
-49 195 -47 195 6 0 51 -120 182 -253 277 -45 32 -86 61 -91 66 -6 4 33 8 85
8 l96 0 123 -117 c215 -206 310 -334 310 -422 0 -47 -21 -66 -86 -77 -91 -14
-243 50 -594 250 -101 58 -186 106 -188 106 -5 0 54 -70 192 -227 64 -73 116
-135 116 -138 0 -3 -35 -5 -78 -5 l-79 0 -264 306 c-145 168 -265 308 -266
312 -2 4 31 8 71 10 l75 3 283 -162z"/>
<path d="M4650 12296 c-13 -12 -1361 -900 -3595 -2369 -401 -264 -736 -485
-743 -492 -11 -10 123 -74 665 -320 373 -169 695 -310 715 -313 24 -3 44 0 55
9 9 8 661 784 1448 1724 788 941 1444 1725 1459 1743 27 32 24 45 -4 18z
m-2112 -1892 c31 -21 28 -66 -7 -139 -99 -206 -323 -421 -536 -513 -191 -82
-280 -82 -278 2 l1 36 -69 -64 c-119 -107 -297 -195 -399 -196 -26 0 -51 5
-58 12 -60 60 128 357 319 504 149 114 373 196 417 152 7 -7 12 -26 12 -43 l0
-31 48 44 c117 111 267 198 396 232 88 23 125 24 154 4z"/>
<path d="M2170 10168 c-111 -42 -219 -129 -255 -204 -15 -33 -16 -38 -1 -52
13 -13 23 -14 72 -3 64 15 166 65 224 111 47 37 100 115 100 147 0 21 -5 23
-42 22 -24 0 -68 -9 -98 -21z"/>
<path d="M1670 9991 c-107 -33 -240 -151 -240 -214 0 -18 5 -19 47 -13 118 16
282 140 283 214 0 18 -5 22 -32 21 -18 0 -44 -4 -58 -8z"/>
<path d="M10097 8981 c-455 -209 -834 -385 -842 -391 -8 -7 -15 -23 -15 -36 0
-13 58 -171 129 -351 141 -358 729 -1851 1221 -3098 171 -434 359 -912 418
-1062 59 -149 108 -270 110 -269 1 2 -4 277 -13 612 -8 335 -19 791 -25 1014
-5 223 -14 594 -20 825 -20 820 -50 2047 -60 2515 -6 261 -13 508 -16 548 -6
70 -6 72 -32 72 -15 0 -400 -171 -855 -379z m832 -853 l1 -87 -83 -54 c-76
-50 -84 -57 -81 -83 2 -16 11 -182 20 -369 9 -187 18 -342 21 -344 2 -3 39 30
82 73 57 57 80 74 84 63 3 -8 7 -52 8 -97 l2 -82 -74 -75 c-63 -64 -264 -212
-274 -201 -2 2 -13 192 -24 423 -12 231 -24 443 -27 472 l-5 52 -40 -26 c-30
-20 -39 -32 -39 -54 0 -28 -2 -29 -45 -29 -142 0 -290 -125 -310 -262 -20
-137 49 -176 176 -99 l64 39 7 -52 c3 -28 6 -70 7 -93 1 -41 0 -43 -73 -93
-41 -28 -86 -68 -100 -88 -46 -67 -55 -172 -18 -214 41 -48 135 5 258 145 l41
47 6 -108 5 -107 -42 -43 c-97 -102 -250 -202 -332 -218 -47 -9 -98 15 -119
56 -58 113 -30 316 61 435 l26 35 -35 0 c-102 0 -152 150 -116 346 36 196 187
371 410 473 35 16 172 98 304 183 189 121 241 150 247 138 4 -8 7 -54 7 -102z"/>
<path d="M170 9167 c0 -29 -4 -179 -10 -332 -12 -363 -24 -714 -60 -1865 -16
-520 -34 -1082 -40 -1250 -5 -168 -19 -591 -30 -940 -11 -349 -22 -700 -25
-780 -4 -109 -2 -139 6 -120 10 22 148 425 419 1225 49 143 124 366 169 495
44 129 115 341 159 470 44 129 149 435 232 680 83 245 188 551 232 680 44 129
115 339 158 465 239 703 225 655 204 674 -11 10 -300 145 -644 301 -344 156
-658 298 -697 317 l-73 32 0 -52z m205 -1336 c50 -22 101 -80 130 -146 12 -27
27 -61 33 -75 9 -22 11 -18 11 33 1 31 4 57 9 57 4 -1 84 -47 177 -104 l170
-103 -2 -88 c-1 -48 -4 -90 -7 -92 -2 -2 -27 10 -55 28 -29 17 -54 30 -56 28
-2 -2 -13 -121 -24 -264 -12 -143 -24 -287 -27 -321 l-6 -61 62 -12 63 -13 -7
-86 c-4 -48 -8 -87 -9 -88 -1 -1 -29 3 -62 8 -40 7 -81 24 -123 51 l-63 39 6
67 c35 364 61 757 51 767 -6 6 -28 21 -48 33 l-37 22 6 -143 c9 -231 -32 -451
-102 -542 -58 -77 -131 -79 -223 -6 -86 67 -94 86 -86 185 4 47 11 85 15 85 5
0 9 -4 9 -9 0 -18 86 -105 119 -118 31 -13 36 -13 60 5 25 18 51 79 64 148 6
31 6 32 -22 21 -41 -15 -77 -2 -125 47 -70 69 -106 188 -106 345 0 151 38 262
104 302 38 23 50 23 101 0z"/>
<path d="M324 7635 c-13 -20 -19 -55 -22 -136 -5 -120 4 -156 45 -189 55 -43
87 20 87 175 1 83 -2 106 -19 135 -27 46 -66 52 -91 15z"/>
<path d="M4208 8510 c-1230 -3 -2240 -8 -2244 -13 -4 -4 0 -22 9 -40 29 -60
3452 -5826 3474 -5854 l22 -28 24 28 c12 15 511 885 1107 1935 596 1049 1343
2362 1659 2917 319 560 575 1021 575 1035 l1 25 -1195 0 c-657 1 -2202 -1
-3432 -5z m452 -1345 l0 -135 320 0 320 0 0 -162 0 -163 -291 -433 -291 -432
-204 2 -205 3 1 458 0 457 -105 0 -105 0 0 135 0 134 103 3 102 3 2 125 c1 69
2 128 3 133 0 4 79 7 175 7 l175 0 0 -135z m1880 5 l0 -130 -162 -2 -163 -3
-3 -467 c-2 -371 0 -468 10 -468 7 0 84 16 171 34 l157 33 0 -127 0 -127 -177
-37 c-164 -33 -191 -36 -345 -36 l-168 0 0 600 0 600 -165 0 -165 0 0 130 0
130 505 0 505 0 0 -130z"/>
<path d="M4660 6458 c0 -166 4 -298 8 -292 5 5 97 141 205 302 l196 292 -204
0 -205 0 0 -302z"/>
<path d="M9035 8339 c-10 -19 -769 -1356 -1687 -2972 -938 -1650 -1667 -2945
-1664 -2953 3 -8 12 -14 20 -14 7 0 942 128 2077 284 1135 157 2329 321 2652
366 323 44 599 86 612 92 14 6 27 19 30 29 10 31 27 -15 -325 879 -73 184
-186 471 -251 638 -65 166 -173 439 -239 607 -66 168 -174 442 -240 610 -66
168 -174 442 -240 610 -66 168 -174 441 -239 608 -65 166 -178 453 -251 637
-73 184 -156 397 -185 474 l-53 139 -17 -34z m-281 -3327 c24 -19 73 -126 243
-525 118 -275 212 -506 211 -513 -4 -18 -202 -314 -210 -314 -4 0 -180 133
-392 295 -212 162 -388 295 -390 295 -2 0 -25 -34 -52 -75 -27 -41 -53 -75
-57 -75 -4 0 -56 37 -115 82 -59 45 -109 83 -110 84 -2 1 19 36 47 78 28 41
51 79 51 84 0 5 -49 47 -109 92 l-110 84 91 133 c50 73 94 133 98 133 4 0 54
-36 111 -80 56 -44 105 -80 109 -80 3 0 53 69 110 153 57 83 132 194 168 245
l64 92 106 -82 c59 -45 120 -92 136 -106z"/>
<path d="M8512 4687 c-56 -84 -102 -155 -102 -159 0 -3 78 -66 173 -139 94
-73 210 -162 256 -198 47 -36 82 -59 79 -51 -71 169 -297 692 -299 695 -2 2
-50 -65 -107 -148z"/>
<path d="M1752 8253 c-12 -32 -62 -178 -112 -325 -49 -148 -130 -387 -180
-533 -49 -146 -130 -383 -179 -527 -49 -145 -341 -1005 -649 -1913 -308 -907
-566 -1670 -572 -1694 -15 -57 -7 -87 30 -106 16 -8 206 -41 442 -75 597 -86
1192 -172 1593 -230 328 -47 571 -83 1590 -230 862 -124 1106 -160 1274 -185
95 -14 190 -25 211 -25 61 0 61 25 3 125 -208 358 -3419 5774 -3424 5774 -4 1
-16 -25 -27 -56z m514 -2740 c59 -82 111 -153 116 -159 6 -8 -9 -23 -43 -45
-50 -32 -51 -33 -28 -42 145 -58 258 -139 351 -253 157 -193 224 -375 198
-539 -28 -178 -163 -342 -372 -454 -202 -108 -401 -118 -596 -30 -141 64 -288
200 -404 374 -63 94 -158 276 -158 299 0 10 189 141 194 134 2 -2 15 -39 30
-83 71 -202 193 -363 322 -425 73 -35 190 -39 267 -10 l58 22 -61 39 c-159
103 -293 283 -336 452 -24 91 -16 208 19 279 32 65 94 126 166 162 l50 26 -72
98 c-40 53 -77 103 -81 109 -5 9 36 41 130 103 76 49 138 90 139 90 2 0 51
-66 111 -147z"/>
<path d="M2264 4926 c-101 -48 -164 -124 -164 -198 0 -74 79 -186 157 -223 66
-32 163 -7 254 66 79 63 91 163 29 258 -69 108 -175 146 -276 97z"/>
<path d="M488 2839 c14 -14 4915 -2792 4943 -2802 15 -6 31 -8 35 -4 4 4 -2
193 -15 420 -12 226 -31 581 -42 787 -40 753 -47 857 -57 877 -7 11 -19 24
-28 27 -9 4 -283 45 -608 92 -655 94 -1404 202 -2251 324 -308 44 -807 116
-1110 160 -302 43 -623 90 -712 102 -90 13 -160 21 -155 17z m3894 -949 c78
-29 173 -101 208 -157 60 -95 31 -206 -80 -306 -73 -66 -164 -123 -237 -149
-35 -13 -63 -26 -63 -29 0 -4 16 -17 35 -30 19 -13 35 -27 35 -31 0 -15 -181
-129 -193 -122 -6 5 -45 33 -85 63 l-74 55 27 20 28 20 -64 13 c-105 21 -202
75 -291 163 -43 42 -78 81 -78 86 0 5 30 29 67 52 70 47 67 47 97 -8 27 -48
110 -116 172 -140 72 -27 144 -24 224 11 l54 23 -55 16 c-72 22 -112 44 -160
87 -73 66 -99 156 -65 221 34 64 142 139 233 162 61 15 201 5 265 -20z"/>
<path d="M4210 1749 c-61 -27 -120 -86 -120 -119 0 -53 86 -107 149 -95 73 14
163 75 182 123 20 53 -48 112 -128 112 -21 0 -58 -10 -83 -21z"/>
<path d="M10060 2760 c-523 -73 -1547 -215 -3539 -490 -476 -66 -873 -123
-883 -126 -11 -3 -23 -15 -27 -27 -5 -12 4 -253 19 -537 16 -283 40 -744 55
-1025 14 -280 30 -520 35 -533 5 -12 16 -22 23 -22 8 0 1091 624 2408 1386
1317 763 2421 1402 2454 1420 45 26 54 34 35 33 -14 -1 -275 -36 -580 -79z
m-2344 -983 c126 -140 183 -196 193 -192 9 3 74 40 144 82 l129 76 41 -41 c26
-26 38 -45 32 -51 -13 -11 -1618 -962 -1619 -958 -1 1 -18 21 -40 44 l-38 41
141 83 c78 46 140 86 139 90 -5 13 -279 309 -286 309 -4 0 -66 -43 -137 -95
l-130 -96 -38 41 c-21 22 -35 44 -32 49 3 5 65 52 138 104 159 114 425 273
436 261 5 -5 79 -88 166 -184 87 -96 166 -184 176 -194 18 -19 22 -17 239 113
197 118 220 134 208 149 -65 83 -273 300 -282 295 -6 -3 -67 -47 -135 -96
l-123 -89 -39 38 c-22 21 -38 41 -37 45 11 29 547 383 569 376 4 -1 87 -91
185 -200z"/>
</g>
</svg>
